<svg id="visual" viewBox="0 0 900 600" width="900" height="600" xmlns="http://www.w3.org/2000/svg" xmlns:xlink="http://www.w3.org/1999/xlink" version="1.1"><rect x="0" y="0" width="900" height="600" fill="#ffffff"></rect><path d="M0 257L21.5 265C43 273 86 289 128.8 290C171.7 291 214.3 277 257.2 270.8C300 264.7 343 266.3 385.8 269.2C428.7 272 471.3 276 514.2 280.7C557 285.3 600 290.7 642.8 298.7C685.7 306.7 728.3 317.3 771.2 318.2C814 319 857 310 878.5 305.5L900 301L900 601L878.5 601C857 601 814 601 771.2 601C728.3 601 685.7 601 642.8 601C600 601 557 601 514.2 601C471.3 601 428.7 601 385.8 601C343 601 300 601 257.2 601C214.3 601 171.7 601 128.8 601C86 601 43 601 21.5 601L0 601Z" fill="#ffffff"></path><path d="M0 371L21.5 364.3C43 357.7 86 344.3 128.8 350.3C171.7 356.3 214.3 381.7 257.2 385C300 388.3 343 369.7 385.8 354.5C428.7 339.3 471.3 327.7 514.2 336C557 344.3 600 372.7 642.8 387.7C685.7 402.7 728.3 404.3 771.2 387.3C814 370.3 857 334.7 878.5 316.8L900 299L900 601L878.5 601C857 601 814 601 771.2 601C728.3 601 685.7 601 642.8 601C600 601 557 601 514.2 601C471.3 601 428.7 601 385.8 601C343 601 300 601 257.2 601C214.3 601 171.7 601 128.8 601C86 601 43 601 21.5 601L0 601Z" fill="#e8efff"></path><path d="M0 340L21.5 352.5C43 365 86 390 128.8 392.2C171.7 394.3 214.3 373.7 257.2 369.8C300 366 343 379 385.8 387.7C428.7 396.3 471.3 400.7 514.2 407.2C557 413.7 600 422.3 642.8 412C685.7 401.7 728.3 372.3 771.2 367.2C814 362 857 381 878.5 390.5L900 400L900 601L878.5 601C857 601 814 601 771.2 601C728.3 601 685.7 601 642.8 601C600 601 557 601 514.2 601C471.3 601 428.7 601 385.8 601C343 601 300 601 257.2 601C214.3 601 171.7 601 128.8 601C86 601 43 601 21.5 601L0 601Z" fill="#d1e0fe"></path><path d="M0 435L21.5 432.7C43 430.3 86 425.7 128.8 425.8C171.7 426 214.3 431 257.2 425C300 419 343 402 385.8 402.3C428.7 402.7 471.3 420.3 514.2 424.3C557 428.3 600 418.7 642.8 411.3C685.7 404 728.3 399 771.2 397.3C814 395.7 857 397.3 878.5 398.2L900 399L900 601L878.5 601C857 601 814 601 771.2 601C728.3 601 685.7 601 642.8 601C600 601 557 601 514.2 601C471.3 601 428.7 601 385.8 601C343 601 300 601 257.2 601C214.3 601 171.7 601 128.8 601C86 601 43 601 21.5 601L0 601Z" fill="#b9d1fd"></path><path d="M0 448L21.5 452.7C43 457.3 86 466.7 128.8 468.3C171.7 470 214.3 464 257.2 458.2C300 452.3 343 446.7 385.8 445.5C428.7 444.3 471.3 447.7 514.2 453.7C557 459.7 600 468.3 642.8 470.3C685.7 472.3 728.3 467.7 771.2 460.7C814 453.7 857 444.3 878.5 439.7L900 435L900 601L878.5 601C857 601 814 601 771.2 601C728.3 601 685.7 601 642.8 601C600 601 557 601 514.2 601C471.3 601 428.7 601 385.8 601C343 601 300 601 257.2 601C214.3 601 171.7 601 128.8 601C86 601 43 601 21.5 601L0 601Z" fill="#9fc2fc"></path><path d="M0 533L21.5 533.2C43 533.3 86 533.7 128.8 530.3C171.7 527 214.3 520 257.2 515.8C300 511.7 343 510.3 385.8 512.2C428.7 514 471.3 519 514.2 520.8C557 522.7 600 521.3 642.8 514.5C685.7 507.7 728.3 495.3 771.2 496.8C814 498.3 857 513.7 878.5 521.3L900 529L900 601L878.5 601C857 601 814 601 771.2 601C728.3 601 685.7 601 642.8 601C600 601 557 601 514.2 601C471.3 601 428.7 601 385.8 601C343 601 300 601 257.2 601C214.3 601 171.7 601 128.8 601C86 601 43 601 21.5 601L0 601Z" fill="#82b3fb"></path><path d="M0 561L21.5 557.8C43 554.7 86 548.3 128.8 548.7C171.7 549 214.3 556 257.2 557.5C300 559 343 555 385.8 555.3C428.7 555.7 471.3 560.3 514.2 559.8C557 559.3 600 553.7 642.8 547.5C685.7 541.3 728.3 534.7 771.2 531.2C814 527.7 857 527.3 878.5 527.2L900 527L900 601L878.5 601C857 601 814 601 771.2 601C728.3 601 685.7 601 642.8 601C600 601 557 601 514.2 601C471.3 601 428.7 601 385.8 601C343 601 300 601 257.2 601C214.3 601 171.7 601 128.8 601C86 601 43 601 21.5 601L0 601Z" fill="#60a5fa"></path></svg>