<svg width="106" height="106" viewBox="0 0 106 106" fill="none" xmlns="http://www.w3.org/2000/svg">
<rect x="10" y="10.3688" width="95" height="95" rx="47.5" fill="#0C2985"/>
<rect x="10" y="10.3688" width="95" height="95" rx="47.5" stroke="#0C2985"/>
<rect x="1.83301" y="1.86877" width="102" height="102" rx="51" stroke="#0C2985" stroke-width="2" stroke-dasharray="8 4"/>
<path d="M71.5 37.8688H43.5C42.9696 37.8688 42.4609 37.6581 42.0858 37.283C41.7107 36.9079 41.5 36.3992 41.5 35.8688C41.5 35.3383 41.7107 34.8296 42.0858 34.4546C42.4609 34.0795 42.9696 33.8688 43.5 33.8688H71.5C72.0304 33.8688 72.5391 34.0795 72.9142 34.4546C73.2893 34.8296 73.5 35.3383 73.5 35.8688C73.5 36.3992 73.2893 36.9079 72.9142 37.283C72.5391 37.6581 72.0304 37.8688 71.5 37.8688Z" fill="white"/>
<path d="M75.5 43.8688H39.5C38.9696 43.8688 38.4609 43.6581 38.0858 43.283C37.7107 42.9079 37.5 42.3992 37.5 41.8688C37.5 41.3383 37.7107 40.8296 38.0858 40.4546C38.4609 40.0795 38.9696 39.8688 39.5 39.8688H75.5C76.0304 39.8688 76.5391 40.0795 76.9142 40.4546C77.2893 40.8296 77.5 41.3383 77.5 41.8688C77.5 42.3992 77.2893 42.9079 76.9142 43.283C76.5391 43.6581 76.0304 43.8688 75.5 43.8688Z" fill="white"/>
<path d="M77.8913 81.8688H37.1088C35.6217 81.8671 34.1961 81.2757 33.1446 80.2242C32.0931 79.1727 31.5017 77.7471 31.5 76.26V51.4775C31.5017 49.9905 32.0931 48.5649 33.1446 47.5134C34.1961 46.4619 35.6217 45.8704 37.1088 45.8688H77.8913C79.3783 45.8704 80.8039 46.4619 81.8554 47.5134C82.9069 48.5649 83.4983 49.9905 83.5 51.4775V76.26C83.4983 77.7471 82.9069 79.1727 81.8554 80.2242C80.8039 81.2757 79.3783 81.8671 77.8913 81.8688V81.8688Z" fill="white"/>
</svg>
