<svg width="105" height="106" viewBox="0 0 105 106" fill="none" xmlns="http://www.w3.org/2000/svg">
<rect x="1" y="10.3688" width="95" height="95" rx="47.5" fill="#EEC03E"/>
<rect x="1" y="10.3688" width="95" height="95" rx="47.5" stroke="#EEC03E"/>
<rect x="1.83301" y="1.86877" width="102" height="102" rx="51" stroke="#EEC03E" stroke-width="2" stroke-dasharray="8 4"/>
<path d="M62.5 37.8688H34.5C33.9696 37.8688 33.4609 37.6581 33.0858 37.283C32.7107 36.9079 32.5 36.3992 32.5 35.8688C32.5 35.3383 32.7107 34.8296 33.0858 34.4546C33.4609 34.0795 33.9696 33.8688 34.5 33.8688H62.5C63.0304 33.8688 63.5391 34.0795 63.9142 34.4546C64.2893 34.8296 64.5 35.3383 64.5 35.8688C64.5 36.3992 64.2893 36.9079 63.9142 37.283C63.5391 37.6581 63.0304 37.8688 62.5 37.8688Z" fill="white"/>
<path d="M66.5 43.8688H30.5C29.9696 43.8688 29.4609 43.6581 29.0858 43.283C28.7107 42.9079 28.5 42.3992 28.5 41.8688C28.5 41.3383 28.7107 40.8296 29.0858 40.4546C29.4609 40.0795 29.9696 39.8688 30.5 39.8688H66.5C67.0304 39.8688 67.5391 40.0795 67.9142 40.4546C68.2893 40.8296 68.5 41.3383 68.5 41.8688C68.5 42.3992 68.2893 42.9079 67.9142 43.283C67.5391 43.6581 67.0304 43.8688 66.5 43.8688Z" fill="white"/>
<path d="M68.8913 81.8688H28.1088C26.6217 81.8671 25.1961 81.2757 24.1446 80.2242C23.0931 79.1727 22.5017 77.7471 22.5 76.26V51.4775C22.5017 49.9905 23.0931 48.5649 24.1446 47.5134C25.1961 46.4619 26.6217 45.8704 28.1088 45.8688H68.8913C70.3783 45.8704 71.8039 46.4619 72.8554 47.5134C73.9069 48.5649 74.4983 49.9905 74.5 51.4775V76.26C74.4983 77.7471 73.9069 79.1727 72.8554 80.2242C71.8039 81.2757 70.3783 81.8671 68.8913 81.8688V81.8688Z" fill="white"/>
</svg>
