<svg id="visual" viewBox="0 0 900 600" width="900" height="600" xmlns="http://www.w3.org/2000/svg" xmlns:xlink="http://www.w3.org/1999/xlink" version="1.1"><rect x="0" y="0" width="900" height="600" fill="#F8F8F8"></rect><path d="M0 408L21.5 412.3C43 416.7 86 425.3 128.8 423C171.7 420.7 214.3 407.3 257.2 418.5C300 429.7 343 465.3 385.8 479C428.7 492.7 471.3 484.3 514.2 471.3C557 458.3 600 440.7 642.8 427C685.7 413.3 728.3 403.7 771.2 412.8C814 422 857 450 878.5 464L900 478L900 601L878.5 601C857 601 814 601 771.2 601C728.3 601 685.7 601 642.8 601C600 601 557 601 514.2 601C471.3 601 428.7 601 385.8 601C343 601 300 601 257.2 601C214.3 601 171.7 601 128.8 601C86 601 43 601 21.5 601L0 601Z" fill="#EFEFEF" stroke-linecap="round" stroke-linejoin="miter"></path></svg>